<?xml version="1.0" standalone="no"?>
<!DOCTYPE svg PUBLIC "-//W3C//DTD SVG 20010904//EN"
 "http://www.w3.org/TR/2001/REC-SVG-20010904/DTD/svg10.dtd">
<svg version="1.0" xmlns="http://www.w3.org/2000/svg"
 width="1000.000000pt" height="1000.000000pt" viewBox="0 0 1000.000000 1000.000000"
 preserveAspectRatio="xMidYMid meet">
<metadata>
Created by potrace 1.11, written by Peter Selinger 2001-2013
</metadata>
<g transform="translate(0.000000,1000.000000) scale(0.100000,-0.100000)"
fill="#000000" stroke="none">
<path d="M4845 9990 c-111 -18 -134 -23 -218 -51 -435 -144 -754 -515 -831
-964 -18 -111 -13 -374 10 -447 3 -10 8 -30 10 -45 10 -56 55 -176 98 -261
140 -280 407 -509 711 -610 72 -24 93 -29 235 -51 74 -12 266 -8 352 8 385 68
716 314 887 657 46 93 72 167 101 284 39 156 34 450 -10 564 -5 15 -7 26 -5
26 10 0 -50 151 -97 243 -162 316 -469 551 -823 628 -98 22 -333 32 -420 19z"/>
<path d="M990 7722 c-151 -40 -283 -148 -349 -286 -49 -101 -61 -158 -57 -266
6 -143 60 -263 165 -365 89 -86 162 -119 376 -169 262 -61 412 -95 435 -100
14 -3 75 -16 137 -31 147 -33 673 -145 798 -169 240 -46 453 -85 495 -91 19
-3 46 -7 60 -10 35 -7 76 -13 225 -36 72 -11 141 -22 155 -24 14 -2 49 -7 79
-10 30 -4 61 -8 70 -10 9 -1 45 -6 81 -10 36 -5 74 -9 85 -11 11 -1 27 -3 35
-3 12 -1 15 -12 14 -53 -1 -29 -5 -226 -9 -438 -4 -212 -8 -425 -10 -475 -24
-589 -43 -909 -70 -1205 -2 -25 -7 -76 -10 -115 -3 -38 -8 -86 -11 -105 -2
-20 -6 -60 -9 -90 -5 -60 -24 -230 -30 -270 -2 -14 -6 -45 -10 -70 -5 -44 -13
-99 -20 -150 -2 -14 -7 -45 -10 -70 -3 -25 -8 -52 -10 -60 -2 -8 -7 -35 -10
-60 -3 -25 -10 -67 -15 -95 -5 -27 -12 -65 -15 -83 -10 -59 -56 -286 -67 -327
-5 -22 -11 -47 -13 -55 -43 -215 -230 -822 -310 -1005 -7 -16 -22 -55 -33 -85
-11 -30 -62 -163 -114 -295 -52 -132 -100 -264 -106 -293 -15 -69 -8 -222 13
-292 117 -377 544 -550 888 -360 69 38 161 122 204 188 29 43 169 363 187 427
2 6 7 19 11 30 4 11 21 54 37 95 16 41 33 84 38 95 16 36 111 296 157 430 90
267 181 589 238 845 35 156 111 556 120 635 3 22 7 51 10 65 3 14 7 45 10 70
12 104 8 100 86 101 263 2 257 3 263 -28 3 -16 8 -48 11 -73 13 -98 20 -140
44 -285 29 -173 90 -468 132 -637 87 -356 211 -742 354 -1108 261 -669 250
-646 355 -750 113 -113 231 -166 393 -176 363 -24 668 282 643 646 -7 103 -11
119 -121 395 -86 215 -99 251 -171 445 -126 338 -250 758 -308 1040 -28 138
-71 370 -87 475 -11 72 -22 141 -24 155 -4 25 -23 160 -30 215 -2 17 -7 62
-10 100 -4 39 -8 72 -10 75 -2 3 -6 43 -10 90 -4 47 -9 93 -10 103 -2 9 -7 54
-10 100 -3 45 -7 98 -10 117 -2 19 -7 73 -10 120 -4 47 -8 105 -10 130 -2 25
-6 90 -10 145 -3 55 -8 134 -10 175 -8 126 -14 248 -21 410 -11 266 -12 316
-19 680 -4 195 -8 385 -9 422 -1 37 0 72 3 77 4 5 24 12 46 15 108 13 153 19
315 42 185 26 220 31 260 38 68 13 149 26 180 31 35 4 74 11 120 20 14 3 39 8
55 11 29 4 114 20 163 30 12 2 33 6 47 8 13 3 60 12 102 20 43 9 89 18 103 20
14 3 36 7 50 10 47 10 125 26 150 31 47 8 175 36 215 47 22 5 51 12 65 15 45
7 254 53 290 63 31 8 222 52 290 66 14 3 72 16 130 30 141 33 192 45 210 49
93 19 224 101 290 180 105 126 153 306 120 450 -7 28 -13 58 -15 67 -10 47
-83 164 -138 218 -71 72 -187 132 -287 150 -67 12 -208 7 -238 -9 -10 -5 -33
-11 -52 -14 -19 -2 -73 -14 -120 -25 -300 -73 -1018 -231 -1170 -258 -14 -2
-36 -7 -50 -9 -60 -12 -77 -16 -104 -21 -16 -2 -32 -6 -35 -8 -3 -2 -28 -7
-55 -10 -27 -4 -52 -9 -55 -11 -3 -1 -24 -6 -46 -9 -22 -4 -65 -11 -95 -16
-30 -5 -68 -12 -85 -15 -16 -2 -39 -7 -50 -9 -11 -2 -40 -7 -65 -11 -25 -4
-54 -9 -65 -11 -11 -2 -67 -11 -125 -19 -236 -37 -361 -53 -520 -70 -25 -2
-61 -7 -80 -9 -38 -6 -124 -14 -235 -22 -38 -3 -95 -7 -125 -9 -290 -24 -991
-24 -1210 0 -19 2 -77 6 -127 10 -51 3 -101 8 -110 9 -10 2 -54 7 -98 11 -44
4 -93 8 -110 10 -200 25 -264 33 -385 51 -58 8 -121 17 -140 20 -44 7 -365 62
-405 70 -16 3 -39 7 -50 9 -11 1 -36 6 -55 9 -19 4 -42 8 -50 10 -76 14 -126
24 -335 66 -184 37 -636 135 -765 165 -8 2 -87 20 -175 40 -88 20 -167 38
-175 40 -8 2 -55 13 -105 25 -118 29 -241 34 -325 12z"/>
</g>
</svg>
